HIERARCHY
ROOT hip
{
	OFFSET 0.000000 0.000000 0.000000
	CHANNELS 6 Xposition Yposition Zposition Xrotation Zrotation Yrotation 
	JOINT abdomen
	{
		OFFSET 0.000000 3.422050 0.000000
		CHANNELS 3 Xrotation Zrotation Yrotation 
		JOINT chest
		{
			OFFSET 0.000000 8.486693 -0.684411
			CHANNELS 3 Xrotation Zrotation Yrotation 
			JOINT neck
			{
				OFFSET 0.000000 10.266162 -0.273764
				CHANNELS 3 Xrotation Zrotation Yrotation 
				JOINT head
				{
					OFFSET 0.000000 3.148285 0.000000
					CHANNELS 3 Xrotation Zrotation Yrotation 
					End Site
					{
						OFFSET 0.000000 3.148289 0.000000
					}
				}
			}
			JOINT lCollar
			{
				OFFSET 3.422053 6.707223 -0.821293
				CHANNELS 3 Yrotation Zrotation Xrotation 
				JOINT lShldr
				{
					OFFSET 3.285171 0.000000 0.000000
					CHANNELS 3 Zrotation Yrotation Xrotation 
					JOINT lForeArm
					{
						OFFSET 10.129278 0.000000 0.000000
						CHANNELS 3 Yrotation Zrotation Xrotation 
						JOINT lHand
						{
							OFFSET 8.486692 0.000000 0.000000
							CHANNELS 3 Zrotation Yrotation Xrotation 
							End Site
							{
								OFFSET 4.106464 0.000000 0.000000
							}
						}
					}
				}
			}
			JOINT rCollar
			{
				OFFSET -3.558935 6.707223 -0.821293
				CHANNELS 3 Yrotation Zrotation Xrotation 
				JOINT rShldr
				{
					OFFSET -3.148289 0.000000 0.000000
					CHANNELS 3 Zrotation Yrotation Xrotation 
					JOINT rForeArm
					{
						OFFSET -10.266159 0.000000 0.000000
						CHANNELS 3 Yrotation Zrotation Xrotation 
						JOINT rHand
						{
							OFFSET -8.349810 0.000000 0.000000
							CHANNELS 3 Zrotation Yrotation Xrotation 
							End Site
							{
								OFFSET -4.106464 0.000000 0.000000
							}
						}
					}
				}
			}
		}
	}
	JOINT lThigh
	{
		OFFSET 5.338403 -1.642589 1.368821
		CHANNELS 3 Xrotation Zrotation Yrotation 
		JOINT lShin
		{
			OFFSET -2.053232 -20.121670 0.000000
			CHANNELS 3 Xrotation Zrotation Yrotation 
			JOINT lFoot
			{
				OFFSET 0.000000 -19.300380 -1.231939
				CHANNELS 3 Xrotation Yrotation Zrotation 
				End Site
				{
					OFFSET 0.000000 -2.463878 4.653993
				}
			}
		}
	}
	JOINT rThigh
	{
		OFFSET -5.338403 -1.642589 1.368821
		CHANNELS 3 Xrotation Zrotation Yrotation 
		JOINT rShin
		{
			OFFSET 2.053232 -20.121670 0.000000
			CHANNELS 3 Xrotation Zrotation Yrotation 
			JOINT rFoot
			{
				OFFSET 0.000000 -19.300380 -1.231939
				CHANNELS 3 Xrotation Yrotation Zrotation 
				End Site
				{
					OFFSET 0.000000 -2.463878 4.653993
				}
			}
		}
	}
}
MOTION
Frames: 19
Frame Time: 0.049989
0.000000 43.528500 0.000000 0.000000 0.000000 0.000000 0.000000 0.000000 0.000000 0.000000 0.000000 0.000000 0.000000 0.000000 0.000000 0.000000 0.000000 0.000000 0.000000 0.000000 0.000000 0.000000 0.000000 0.000000 0.000000 0.000000 0.000000 0.000000 0.000000 0.000000 0.000000 0.000000 0.000000 0.000000 0.000000 0.000000 0.000000 0.000000 0.000000 0.000000 0.000000 0.000000 0.000000 0.000000 0.000000 0.000000 0.000000 0.000000 0.000000 0.000000 0.000000 0.000000 0.000000 0.000000 0.000000 0.000000 0.000000 0.000000 0.000000 0.000000 
14.997663 14.190983 -0.820027 -90.001862 -0.264660 179.742767 43.274643 -0.825122 -0.694141 -24.855658 -0.443030 -0.767199 -34.008083 0.000000 0.000000 -39.343292 -0.054223 -0.001042 -2.015100 -11.232468 5.749300 -48.255287 -57.618343 -31.595097 -130.511047 25.586340 53.521168 -2.813292 -7.462950 10.903473 2.370170 11.038691 5.703713 49.000912 57.785431 -30.849266 130.745270 -25.370493 53.635708 2.814566 7.300196 11.321104 -29.551018 32.929073 23.206564 116.582619 26.274685 -6.003543 19.685562 2.809982 3.718763 -29.549168 -32.915604 -23.237185 116.603966 -26.328806 5.981400 19.664244 -2.820685 -3.703102 
14.997663 14.190983 -0.842721 -90.001862 -0.264660 179.742767 43.274643 -0.825122 -0.694141 -24.855656 -0.443030 -0.767199 -33.619370 0.000000 0.000000 -38.018173 -0.054263 -0.001056 -2.222414 -11.391448 5.930454 -48.255287 -57.618343 -31.595097 -130.511047 25.586340 53.521168 -2.707262 -7.787925 10.989710 2.612054 11.189981 5.886063 49.000912 57.785423 -30.849253 130.745270 -25.370493 53.635704 2.711524 7.617213 11.424750 -29.551018 32.929073 23.206564 116.791794 26.282209 -6.034238 19.685562 2.809982 3.718762 -29.549168 -32.915604 -23.237185 116.811996 -26.333221 6.012946 19.664242 -2.820685 -3.703102 
14.997663 14.190983 -0.865416 -90.001862 -0.264660 179.742767 43.274643 -0.825122 -0.694141 -24.855658 -0.443030 -0.767199 -33.230572 0.000000 0.000000 -36.690178 -0.054303 -0.001070 -2.429359 -11.551089 6.111145 -48.255295 -57.618343 -31.595093 -130.511047 25.586340 53.521168 -2.601627 -8.113110 11.075422 2.853611 11.342049 6.067884 49.000912 57.785431 -30.849266 130.745270 -25.370493 53.635708 2.608967 7.934462 11.527912 -29.551018 32.929073 23.206564 117.000992 26.289829 -6.064906 19.685564 2.809982 3.718763 -29.549171 -32.915607 -23.237186 117.020050 -26.337738 6.044477 19.664244 -2.820685 -3.703102 
14.997663 14.190983 -0.888110 -90.001862 -0.264660 179.742767 43.274643 -0.825122 -0.694141 -24.855658 -0.443030 -0.767199 -32.841724 0.000000 0.000000 -35.359665 -0.054343 -0.001086 -2.635934 -11.711390 6.291373 -48.255276 -57.618336 -31.595097 -130.511047 25.586340 53.521168 -2.496381 -8.438490 11.160604 3.094839 11.494889 6.249175 49.000912 57.785431 -30.849266 130.745270 -25.370493 53.635708 2.506894 8.251934 11.630595 -29.551018 32.929073 23.206564 117.210213 26.297546 -6.095544 19.685562 2.809982 3.718763 -29.549160 -32.915600 -23.237185 117.228134 -26.342369 6.075994 19.664244 -2.820685 -3.703102 
14.997663 14.190983 -0.910805 -90.001862 -0.264660 179.742767 43.274643 -0.825122 -0.694141 -24.855658 -0.443030 -0.767199 -32.452816 0.000000 0.000000 -34.026985 -0.054383 -0.001103 -2.842136 -11.872345 6.471135 -48.255276 -57.618336 -31.595097 -130.511047 25.586338 53.521164 -2.391522 -8.764064 11.245270 3.335732 11.648493 6.429925 49.000912 57.785431 -30.849266 130.745270 -25.370493 53.635700 2.405300 8.569623 11.732802 -29.551018 32.929070 23.206564 117.419464 26.305374 -6.126155 19.685562 2.809982 3.718763 -29.549168 -32.915604 -23.237183 117.436226 -26.347094 6.107494 19.664244 -2.820685 -3.703102 
14.997663 14.190982 -0.933500 -90.001877 -0.264660 179.742767 43.274643 -0.825122 -0.694141 -24.855659 -0.443030 -0.767199 -32.063862 0.000000 0.000000 -32.692486 -0.054422 -0.001120 -3.047961 -12.033943 6.650424 -48.255287 -57.618343 -31.595097 -130.511047 25.586344 53.521172 -2.287047 -9.089822 11.329414 3.576288 11.802851 6.610133 49.000923 57.785435 -30.849264 130.745270 -25.370497 53.635712 2.304185 8.887521 11.834537 -29.551018 32.929073 23.206564 117.628716 26.313297 -6.156741 19.685564 2.809983 3.718763 -29.549168 -32.915607 -23.237185 117.644325 -26.351923 6.138978 19.664244 -2.820685 -3.703102 
14.997663 14.190982 -0.956194 -90.001862 -0.264660 179.742767 43.274643 -0.825122 -0.694141 -24.855656 -0.443030 -0.767199 -31.674870 0.000000 0.000000 -31.356543 -0.054461 -0.001139 -3.253407 -12.196179 6.829241 -48.255287 -57.618343 -31.595097 -130.511047 25.586340 53.521168 -2.182953 -9.415758 11.413042 3.816503 11.957966 6.789796 49.000912 57.785431 -30.849266 130.745270 -25.370493 53.635708 2.203544 9.205619 11.935798 -29.551018 32.929070 23.206564 117.837959 26.321318 -6.187295 19.685562 2.809982 3.718763 -29.549168 -32.915604 -23.237185 117.852417 -26.356850 6.170444 19.664244 -2.820685 -3.703102 
14.997663 14.190982 -0.978889 -90.001862 -0.264660 179.742767 43.274643 -0.825122 -0.694141 -24.855658 -0.443030 -0.767199 -31.285860 0.000000 0.000000 -30.019505 -0.054499 -0.001158 -3.458471 -12.359053 7.007580 -48.255287 -57.618336 -31.595089 -130.511047 25.586340 53.521168 -2.079235 -9.741859 11.496153 4.056373 12.113824 6.968906 49.000912 57.785431 -30.849266 130.745270 -25.370493 53.635708 2.103376 9.523912 12.036595 -29.551018 32.929073 23.206564 118.047264 26.329439 -6.217816 19.685562 2.809982 3.718763 -29.549168 -32.915604 -23.237185 118.060562 -26.361885 6.201892 19.664244 -2.820685 -3.703102 
14.997663 14.190982 -1.001583 -90.001862 -0.264660 179.742767 43.274639 -0.825122 -0.694141 -24.855656 -0.443030 -0.767199 -30.896830 0.000000 0.000000 -28.681738 -0.054537 -0.001179 -3.663152 -12.522554 7.185441 -48.255287 -57.618336 -31.595089 -130.511047 25.586340 53.521164 -1.975890 -10.068121 11.578748 4.295892 12.270419 7.147458 49.000904 57.785423 -30.849266 130.745270 -25.370493 53.635700 2.003677 9.842390 12.136926 -29.551018 32.929073 23.206564 118.256561 26.337662 -6.248311 19.685560 2.809982 3.718763 -29.549164 -32.915604 -23.237186 118.268677 -26.367016 6.233318 19.664244 -2.820685 -3.703102 
14.997663 14.190982 -1.024278 -90.001862 -0.264660 179.742767 43.274643 -0.825122 -0.694141 -24.855658 -0.443030 -0.767199 -30.507782 0.000000 0.000000 -27.343609 -0.054575 -0.001200 -3.867445 -12.686674 7.362818 -48.255287 -57.618343 -31.595097 -130.511047 25.586342 53.521168 -1.872916 -10.394535 11.660833 4.535060 12.427743 7.325449 49.000912 57.785431 -30.849266 130.745270 -25.370493 53.635708 1.904445 10.161042 12.236792 -29.551018 32.929073 23.206562 118.465874 26.345987 -6.278771 19.685562 2.809982 3.718763 -29.549168 -32.915604 -23.237185 118.476814 -26.372259 6.264729 19.664244 -2.820685 -3.703102 
14.997663 14.190982 -1.046973 -90.001862 -0.264660 179.742767 43.274643 -0.825122 -0.694141 -24.855656 -0.443030 -0.767199 -30.118731 0.000000 0.000000 -26.005468 -0.054612 -0.001222 -4.071350 -12.851416 7.539709 -48.255287 -57.618343 -31.595097 -130.511047 25.586340 53.521168 -1.770308 -10.721093 11.742407 4.773873 12.585794 7.502877 49.000912 57.785431 -30.849266 130.745285 -25.370495 53.635712 1.805678 10.479868 12.336199 -29.551018 32.929073 23.206564 118.675194 26.354404 -6.309199 19.685562 2.809982 3.718763 -29.549168 -32.915604 -23.237185 118.684959 -26.377592 6.296117 19.664244 -2.820685 -3.703102 
14.997663 14.190982 -1.069667 -90.001862 -0.264660 179.742767 43.274643 -0.825122 -0.694141 -24.855659 -0.443030 -0.767199 -29.729710 0.000000 0.000000 -24.667704 -0.054648 -0.001245 -4.274861 -13.016761 7.716111 -48.255295 -57.618343 -31.595093 -130.511063 25.586340 53.521172 -1.668063 -11.047789 11.823474 5.012326 12.744563 7.679733 49.000923 57.785435 -30.849264 130.745285 -25.370495 53.635712 1.707373 10.798852 12.435147 -29.551018 32.929073 23.206562 118.884529 26.362934 -6.339598 19.685562 2.809982 3.718763 -29.549175 -32.915607 -23.237186 118.893105 -26.383036 6.327485 19.664246 -2.820685 -3.703102 
14.997663 14.190982 -1.092362 -90.001862 -0.264660 179.742767 43.274643 -0.825122 -0.694141 -24.855658 -0.443030 -0.767199 -29.340691 0.000000 0.000000 -23.330664 -0.054684 -0.001269 -4.477981 -13.182712 7.892022 -48.255287 -57.618336 -31.595089 -130.511047 25.586340 53.521168 -1.566179 -11.374615 11.904036 5.250416 12.904038 7.856015 49.000912 57.785431 -30.849266 130.745285 -25.370495 53.635712 1.609526 11.117989 12.533639 -29.551018 32.929073 23.206564 119.093872 26.371557 -6.369963 19.685562 2.809982 3.718763 -29.549168 -32.915604 -23.237185 119.101257 -26.388584 6.358834 19.664244 -2.820685 -3.703102 
14.997663 14.190982 -1.115057 -90.001862 -0.264660 179.742767 43.274643 -0.825122 -0.694141 -24.855658 -0.443030 -0.767199 -28.951704 0.000000 0.000000 -21.994720 -0.054720 -0.001294 -4.680703 -13.349259 8.067437 -48.255295 -57.618343 -31.595085 -130.511047 25.586340 53.521168 -1.464650 -11.701558 11.984091 5.488140 13.064218 8.031716 49.000912 57.785431 -30.849266 130.745270 -25.370493 53.635708 1.512136 11.437275 12.631680 -29.551018 32.929073 23.206564 119.303230 26.380278 -6.400291 19.685562 2.809982 3.718763 -29.549171 -32.915607 -23.237186 119.309418 -26.394224 6.390158 19.664244 -2.820685 -3.703102 
14.997663 14.190981 -1.137751 -90.001862 -0.264660 179.742767 43.274643 -0.825122 -0.694141 -24.855654 -0.443030 -0.767199 -28.562752 0.000000 0.000000 -20.660229 -0.054754 -0.001319 -4.883028 -13.516398 8.242356 -48.255280 -57.618336 -31.595089 -130.511047 25.586336 53.521164 -1.363475 -12.028616 12.063645 5.725496 13.225094 8.206836 49.000912 57.785431 -30.849266 130.745270 -25.370493 53.635708 1.415201 11.756698 12.729273 -29.551018 32.929070 23.206564 119.512558 26.389099 -6.430589 19.685562 2.809982 3.718763 -29.549164 -32.915600 -23.237181 119.517563 -26.399973 6.421463 19.664244 -2.820685 -3.703102 
14.997663 14.190981 -1.160446 -90.001862 -0.264660 179.742767 43.274643 -0.825122 -0.694141 -24.855658 -0.443030 -0.767199 -28.173847 0.000000 0.000000 -19.327545 -0.054788 -0.001345 -5.084949 -13.684117 8.416773 -48.255280 -57.618336 -31.595089 -130.511047 25.586340 53.521168 -1.262650 -12.355778 12.142696 5.962480 13.386658 8.381368 49.000904 57.785431 -30.849266 130.745270 -25.370493 53.635700 1.318717 12.076252 12.826418 -29.551018 32.929070 23.206564 119.721924 26.398020 -6.460850 19.685562 2.809982 3.718763 -29.549168 -32.915604 -23.237183 119.725716 -26.405821 6.452742 19.664244 -2.820685 -3.703102 
14.997663 14.190981 -1.183140 -90.001862 -0.264660 179.742767 43.274643 -0.825122 -0.694141 -24.855658 -0.443030 -0.767199 -27.784990 0.000000 0.000000 -17.997032 -0.054822 -0.001372 -5.286469 -13.852416 8.590687 -48.255287 -57.618343 -31.595097 -130.511047 25.586340 53.521168 -1.162171 -12.683037 12.221249 6.199087 13.548903 8.555309 49.000912 57.785431 -30.849266 130.745270 -25.370493 53.635708 1.222682 12.395928 12.923120 -29.551018 32.929070 23.206564 119.931267 26.407034 -6.491073 19.685562 2.809982 3.718763 -29.549168 -32.915604 -23.237185 119.933876 -26.411776 6.483999 19.664244 -2.820685 -3.703102 
14.997663 14.190981 -1.205835 -90.001862 -0.264660 179.742767 43.274643 -0.825122 -0.694141 -24.855661 -0.443030 -0.767199 -27.396204 0.000000 0.000000 -16.669043 -0.054854 -0.001400 -5.487586 -14.021293 8.764099 -48.255291 -57.618351 -31.595100 -130.511047 25.586340 53.521168 -1.062036 -13.010388 12.299308 6.435315 13.711820 8.728652 49.000923 57.785435 -30.849264 130.745270 -25.370493 53.635708 1.127093 12.715722 13.019379 -29.551018 32.929073 23.206562 120.140610 26.416147 -6.521263 19.685562 2.809982 3.718763 -29.549171 -32.915607 -23.237186 120.142029 -26.417826 6.515230 19.664246 -2.820685 -3.703102 
